<svg width="220" height="140" viewBox="0 0 220 140" fill="none" xmlns="http://www.w3.org/2000/svg">
  <defs>
    <linearGradient id="g1" x1="10" y1="10" x2="180" y2="120" gradientUnits="userSpaceOnUse">
      <stop offset="0" stop-color="#FFFFFF"/>
      <stop offset="0.35" stop-color="#BDE2FF"/>
      <stop offset="1" stop-color="#1E8FFF"/>
    </linearGradient>
    <linearGradient id="g2" x1="48" y1="15" x2="140" y2="128" gradientUnits="userSpaceOnUse">
      <stop offset="0" stop-color="#8FD8FF"/>
      <stop offset="1" stop-color="#0C6DFF"/>
    </linearGradient>
  </defs>
  <path d="M18 120V20H74C98 20 112 33 112 53C112 68 104 79 90 84L114 120H86L66 89H46V120H18ZM46 68H69C79 68 85 63 85 54C85 45 79 41 69 41H46V68Z" fill="url(#g1)"/>
  <path d="M126 120V20H154L183 71L212 20H220V120H192V68L176 95H166L150 68V120H126Z" fill="url(#g2)"/>
</svg>
